<?xml version="1.0" encoding="UTF-8" standalone="no"?>
<svg
   id="Calque_1"
   version="1.1"
   viewBox="0 0 276 162.89999"
   sodipodi:docname="logo_cecile_dubois_blanc.svg"
   inkscape:version="1.4 (86a8ad7, 2024-10-11)"
   width="276"
   height="162.89999"
   xmlns:inkscape="http://www.inkscape.org/namespaces/inkscape"
   xmlns:sodipodi="http://sodipodi.sourceforge.net/DTD/sodipodi-0.dtd"
   xmlns="http://www.w3.org/2000/svg"
   xmlns:svg="http://www.w3.org/2000/svg">
  <defs
     id="defs15" />
  <sodipodi:namedview
     id="namedview15"
     pagecolor="#ffffff"
     bordercolor="#666666"
     borderopacity="1.0"
     inkscape:showpageshadow="2"
     inkscape:pageopacity="0.0"
     inkscape:pagecheckerboard="0"
     inkscape:deskcolor="#d1d1d1"
     inkscape:zoom="1.546"
     inkscape:cx="137.7749"
     inkscape:cy="80.530401"
     inkscape:window-width="1920"
     inkscape:window-height="991"
     inkscape:window-x="-9"
     inkscape:window-y="1090"
     inkscape:window-maximized="1"
     inkscape:current-layer="Calque_1" />
  <!-- Generator: Adobe Illustrator 29.2.1, SVG Export Plug-In . SVG Version: 2.1.0 Build 116)  -->
  <g
     id="g12"
     style="fill:#ffffff;fill-opacity:1"
     transform="translate(-112,-168.5)">
    <path
       d="m 128.1,330.5 c -0.9,0.5 -2.9,0.9 -5.4,0.9 -6.6,0 -10.7,-4.1 -10.7,-10.5 0,-6.4 4.8,-11 11.2,-11 6.4,0 4.3,0.5 5.1,0.9 l -0.8,3 c -1,-0.4 -2.4,-0.8 -4.1,-0.8 -4.2,0 -7.3,2.7 -7.3,7.7 0,5 2.7,7.5 7.3,7.5 4.6,0 3.2,-0.3 4.2,-0.8 l 0.6,3 v 0 z"
       id="path1"
       style="fill:#ffffff;fill-opacity:1" />
    <path
       d="m 149.2,321.8 h -7.9 v 6.1 h 8.8 v 3.1 h -12.6 v -20.9 h 12.1 v 3.1 h -8.3 v 5.4 h 7.9 v 3.1 0 z m -0.5,-16.4 -3.9,3.7 h -3.1 l 2.7,-3.7 h 4.2 z"
       id="path2"
       style="fill:#ffffff;fill-opacity:1" />
    <path
       d="m 174.6,330.5 c -0.9,0.5 -2.9,0.9 -5.4,0.9 -6.6,0 -10.7,-4.1 -10.7,-10.5 0,-6.4 4.8,-11 11.2,-11 6.4,0 4.3,0.5 5.1,0.9 l -0.8,3 c -1,-0.4 -2.4,-0.8 -4.1,-0.8 -4.2,0 -7.3,2.7 -7.3,7.7 0,5 2.7,7.5 7.3,7.5 4.6,0 3.2,-0.3 4.1,-0.8 l 0.6,3 v 0 z"
       id="path3"
       style="fill:#ffffff;fill-opacity:1" />
    <path
       d="m 187.9,310.2 v 20.9 h -3.8 v -20.9 z"
       id="path4"
       style="fill:#ffffff;fill-opacity:1" />
    <path
       d="m 198.5,310.2 h 3.8 v 17.7 h 8.6 v 3.2 h -12.4 z"
       id="path5"
       style="fill:#ffffff;fill-opacity:1" />
    <path
       d="m 231.7,321.8 h -7.9 v 6.1 h 8.8 V 331 H 220 v -20.9 h 12.1 v 3.1 h -8.3 v 5.4 h 7.9 v 3.1 0 z"
       id="path6"
       style="fill:#ffffff;fill-opacity:1" />
    <path
       d="m 254.6,310.5 c 1.7,-0.3 3.8,-0.4 6.1,-0.4 3.9,0 6.6,0.8 8.5,2.4 2,1.6 3.3,4.1 3.3,7.7 0,3.6 -1.3,6.5 -3.3,8.3 -2.1,1.9 -5.4,2.9 -9.5,2.9 -4.1,0 -3.9,-0.1 -5.1,-0.3 z m 3.8,17.7 c 0.5,0 1.3,0 2.1,0 5,0 7.9,-2.7 7.9,-8 0,-4.6 -2.6,-7.2 -7.4,-7.2 -4.8,0 -2.1,0 -2.6,0.2 v 14.9 0 z"
       id="path7"
       style="fill:#ffffff;fill-opacity:1" />
    <path
       d="m 285.8,310.2 v 12.2 c 0,4.1 1.7,6 4.3,6 2.6,0 4.4,-1.9 4.4,-6 v -12.2 h 3.8 v 11.9 c 0,6.5 -3.3,9.3 -8.3,9.3 -5,0 -8,-2.7 -8,-9.3 v -12 h 3.8 z"
       id="path8"
       style="fill:#ffffff;fill-opacity:1" />
    <path
       d="m 308.8,310.5 c 1.2,-0.2 3.4,-0.4 5.5,-0.4 2.1,0 4.6,0.3 6,1.3 1.3,0.8 2.2,2.1 2.2,3.9 0,1.8 -1.2,3.7 -3.5,4.5 v 0 c 2.2,0.6 4.2,2.4 4.2,5.2 0,2.8 -0.8,3.3 -2,4.3 -1.5,1.3 -3.9,2 -7.8,2 -3.9,0 -3.7,-0.1 -4.7,-0.3 v -20.6 0 z m 3.8,8.2 h 2 c 2.6,0 4.1,-1.2 4.1,-3 0,-1.8 -1.5,-2.9 -3.9,-2.9 -2.4,0 -1.8,0 -2.2,0.2 z m 0,9.6 c 0.5,0 1.1,0 2,0 2.5,0 4.6,-0.9 4.6,-3.5 0,-2.6 -2.1,-3.4 -4.7,-3.4 h -1.9 v 6.8 0 z"
       id="path9"
       style="fill:#ffffff;fill-opacity:1" />
    <path
       d="m 351.4,320.4 c 0,7 -4.2,11 -10,11 -5.8,0 -9.6,-4.5 -9.6,-10.6 0,-6.1 4,-10.9 9.9,-10.9 5.9,0 9.7,4.6 9.7,10.6 v 0 z m -15.6,0.3 c 0,4.2 2.1,7.6 5.8,7.6 3.7,0 5.8,-3.4 5.8,-7.8 0,-4.4 -2,-7.7 -5.8,-7.7 -3.8,0 -5.8,3.5 -5.8,7.8 z"
       id="path10"
       style="fill:#ffffff;fill-opacity:1" />
    <path
       d="m 364.7,310.2 v 20.9 h -3.8 v -20.9 z"
       id="path11"
       style="fill:#ffffff;fill-opacity:1" />
    <path
       d="m 375.2,326.9 c 1.2,0.7 3.1,1.3 5,1.3 1.9,0 3.8,-1.1 3.8,-2.9 0,-1.8 -1,-2.5 -3.7,-3.5 -3.4,-1.2 -5.6,-3.1 -5.6,-6.1 0,-3 2.9,-6 7.4,-6 4.5,0 3.9,0.5 5,1 l -0.9,3.1 c -0.7,-0.4 -2.2,-1 -4.1,-1 -1.9,0 -3.5,1.3 -3.5,2.5 0,1.2 1.2,2.4 4,3.4 3.6,1.4 5.4,3.2 5.4,6.2 0,3 -2.5,6.3 -7.9,6.3 -5.4,0 -4.5,-0.6 -5.6,-1.3 l 0.8,-3.2 v 0 z"
       id="path12"
       style="fill:#ffffff;fill-opacity:1" />
  </g>
  <g
     id="g15"
     style="fill:#ffffff;fill-opacity:1"
     transform="translate(-112,-168.5)">
    <path
       d="m 382.5,185.6 c -3.1,-5.6 -7.4,-9.9 -12.7,-12.8 -5.3,-2.8 -11.4,-4.2 -18.2,-4.2 h -41.8 c -9.5,5.3 -17.3,14 -23.4,23 h 63.5 c 4.4,0 8.1,1 11,2.9 2.4,1.6 3.6,5 3.6,10.1 v 41.1 c 0,5.1 -1.2,8.5 -3.6,10.1 -2.9,1.9 -6.6,2.9 -11,2.9 h -46.3 c -2,0 -3.7,1.6 -3.7,3.7 V 278 c 0,2 1.6,3.7 3.7,3.7 h 48.1 c 10.5,0 19.1,-3.3 25.6,-9.8 6.5,-6.5 9.9,-15.6 9.9,-27.2 v -39.1 c 0,-7.6 -1.5,-14.3 -4.5,-19.8 v 0 z"
       id="path13"
       style="fill:#ffffff;fill-opacity:1" />
    <path
       d="m 212.8,258.6 h -62.5 c -4.4,0 -8.1,-1 -11,-2.9 -2.4,-1.6 -3.6,-5 -3.6,-10.1 v -41.1 c 0,-5.1 1.2,-8.5 3.6,-10.1 2.9,-1.9 6.6,-2.9 11,-2.9 h 46.3 c 2,0 3.7,-1.6 3.7,-3.7 v -15.6 c 0,-2 -1.6,-3.7 -3.7,-3.7 h -48.1 c -10.5,0 -19.1,3.3 -25.7,9.8 -6.6,6.5 -9.9,15.6 -9.9,27.2 v 39.1 c 0,7.6 1.5,14.3 4.5,19.8 3.1,5.6 7.3,9.9 12.7,12.8 5.3,2.8 11.4,4.2 18.2,4.2 h 33.8 c 12.6,-3.3 22.7,-12.6 30.5,-23 v 0 z"
       id="path14"
       style="fill:#ffffff;fill-opacity:1" />
    <path
       d="m 273,199.4 c 1.5,-2.8 3.1,-5.6 4.9,-8.5 5.8,-9.2 12.2,-16.7 19,-22.4 H 283 c -2.9,0 -5.8,0.5 -8.6,1.3 -2.2,0.7 -4.4,1.6 -6.5,2.7 -5.5,3 -10.1,8.1 -12.8,14.4 l -16.5,37.7 c 0,0 -13.8,29.4 -14.5,30.4 -7.3,11.7 -15.6,20.5 -24.5,26.4 H 217 c 2.9,0 5.8,-0.5 8.6,-1.3 h 0.2 c 8.6,-2.7 15.6,-8.9 19.2,-17.2 l 18.9,-43.1 c 1.6,-4.4 4.6,-12 9.1,-20.5 z"
       id="path15"
       style="fill:#ffffff;fill-opacity:1" />
  </g>
</svg>
